<svg xmlns="http://www.w3.org/2000/svg" viewBox="0 0 444.71 603.88"><defs><style>.cls-1{fill:#feb6b6;}</style></defs><title>background_color</title><g id="Layer_2" data-name="Layer 2"><g id="background_color"><path class="cls-1" d="M0,600.78c0-.86,2.94.95,3.2,1.11,1.7,1,3.07,2.46,5.19,1.36.93-.48,1.69-1.21,2.56-1.78a3.75,3.75,0,0,1,3-.69c1.36.38,2.12,1.87,3.43,2.37a4.14,4.14,0,0,0,3.31-.43c1-.52,1.92-1.24,3-1.71,3.4-1.5,4.84,2.15,7.93,2.17,2.45,0,3.55-2.91,5.77-3.13,1.7-.17,2.84,1.35,4.09,2.21,1.9,1.31,3.89.57,5.74-.47s3.82-2.05,5.76-.85c.55.34,2.76,2.11,3.73,2.26a2.64,2.64,0,0,0,1.58-.31c1.18-.61,1.86-2.05,3.23-2.28s2.8,1.16,4,1.8c1.75.93,4.12,1.06,5.57-.27,2.8-2.57,10.1-1.11,13.7-1.07s8.5,1,11.88.12l2.75-.73,2,.86,1.88,2.57,3.13-1,1.5-.37,235.46-1.47a9.85,9.85,0,0,1,4,.46c1.4.58,2.24,2,3.83,2.09a3.46,3.46,0,0,0,2.74-1,14.74,14.74,0,0,0,1.17-1.64,2.57,2.57,0,0,1,1.61-1.14,2.54,2.54,0,0,1,2.12,1c.54.59.94,1.31,1.53,1.85a4.12,4.12,0,0,0,4.45.67,13.79,13.79,0,0,0,2.58-2c1.24-1,2.67-1.44,4-.35,1,.83,1.62,2.2,3,2.58a3.6,3.6,0,0,0,3.07-.92c1.35-1.07,2.83-3,4.8-2.66,1.54.26,2.11,1.63,3.22,2.51a3.81,3.81,0,0,0,2.43.91c1.35,0,2.46-1,3.52-1.82s2.41-1.59,3.7-1.18a6.06,6.06,0,0,1,2.27,1.89c2.21,2.31,4.56.28,6.5-1.24a5,5,0,0,1,3.29-1.32c1.49.1,2.66,1.27,3.59,2.41a3,3,0,0,0,1.8,1.32,2.68,2.68,0,0,0,1.75-.68c1.3-.95,2.66-2.12,4.28-2,2.78.19,4.66,3.93,7.75,2.5,1.09-.51,1.7-1.6,2.5-2.45a3.33,3.33,0,0,1,2-1.14,3,3,0,0,1,2.11.69,13.59,13.59,0,0,1,1.61,1.6,5.38,5.38,0,0,0,1.79,1.37,4,4,0,0,0,2.36.15,10.67,10.67,0,0,0,2.21-.86,8.2,8.2,0,0,0,1.86-1.07,5.35,5.35,0,0,0,1.81-3.13,16,16,0,0,0,.25-3.27V0H0S0,599.54,0,600.78Z"/></g></g></svg>