<svg xmlns="http://www.w3.org/2000/svg" viewBox="0 0 38.95 41.85"><defs><style>.cls-1{fill:#0d1635;fill-rule:evenodd;}</style></defs><title>bird</title><g id="Layer_2" data-name="Layer 2"><g id="bird"><path class="cls-1" d="M37.57,19.87a2,2,0,0,0-2.85-2.14,2.45,2.45,0,0,0-.84.68s-.24-1.79-.41-2.53a10.83,10.83,0,0,0-2-4.28,31.17,31.17,0,0,0-3.81-3.78C26,6.63,24.94,5.88,23.29,4.75S20,2.6,18.35,1.43A12.9,12.9,0,0,0,15.72,0,45.26,45.26,0,0,1,21,6.88,21.44,21.44,0,0,1,24.3,15c.6,5.51-10.77,5.82-11.28,5.82A22.73,22.73,0,0,1,10,21c-.54.06-9.17.09-9.16.16.08.71,13.45,1.15,13,1.55C12.37,24.1,1.2,25.06,0,25.76c.33.69,9.83-1.1,12-1.27s4.36-.5,6.58-.51c1.82,0,4.14-.22,5.87.43,3.21,1.22.39,6.89-.45,8.87a45,45,0,0,1-3,5.79c-.3.69-1.38,2.07-1.32,2.79a27,27,0,0,0,10.07-8.53,25.3,25.3,0,0,0,2.85-5.52c.32-.92.47-1.89.81-2.8.5-1.33,2.4-1.47,4-4.08a11.68,11.68,0,0,0,1.58-.2C38.82,20.68,37.51,20.12,37.57,19.87Z"/></g></g></svg>