<svg xmlns="http://www.w3.org/2000/svg" viewBox="0 0 23.24 82.22"><defs><style>.cls-1{fill:#ffe1e3;}</style></defs><title>chimney_2</title><g id="Layer_2" data-name="Layer 2"><g id="chimneysmoke_2"><path class="cls-1" d="M1.36,55c2.22-3.79-.18-8.52-.2-12.91a11.78,11.78,0,0,1,3.09-7.95c2.48-2.69,6.45-4.65,6.74-8.3.17-2.17-1.13-4.23-1.15-6.41,0-3.46,3.12-6.79,1.85-10-.45-1.15-1.42-2-1.82-3.21A4.64,4.64,0,0,1,12,1.11a8.77,8.77,0,0,1,5.78-1c2,.24,4.37,1.23,4.72,3.25S21.09,7,20.49,8.9c-1.13,3.59,1.8,7.09,2.56,10.78a9.66,9.66,0,0,1-1.86,7.83c-2.41,3.05-6.82,4.92-7.32,8.78C13.56,38.75,15,41,15.78,43.38a12.56,12.56,0,0,1-1.28,10.26c-1.64,2.65-4.28,4.69-5.36,7.61-1.84,5,1.34,11.26-1.75,15.59C5.82,79.07,3,80.06,1.12,82.06-1.27,84.63.83,55.94,1.36,55Z"/></g></g></svg>