<svg xmlns="http://www.w3.org/2000/svg" viewBox="0 0 34.99 40.75"><defs><style>.cls-1{fill:#ffe1e3;}</style></defs><title>chimney_1</title><g id="Layer_2" data-name="Layer 2"><g id="chimney_smoke_1" data-name="chimney smoke_1"><path class="cls-1" d="M.53,32.35l.66.34a2.56,2.56,0,0,0,1.42.13,4.88,4.88,0,0,0,2.7-1.56c1.22-1.34,2.11-3.11,3.76-3.87,2.31-1.06,5.34.24,7.4-1.23,1.84-1.31,1.81-4.07,1.12-6.21s-1.85-4.25-1.66-6.5c.23-2.75,2.47-5.11,2.35-7.86-.2-4.34,3.92-7.14,5.24-4.48a2.57,2.57,0,0,0,1,1.24c.94.48,2-.35,2.59-1.26C29.31-2.7,36,4.39,34.87,7.31c-1.84,5,1.34,11.26-1.75,15.59-1.59,2.23-4.42,3.22-6.28,5.22-2.39,2.57-3.25,6.79-6.54,8-2,.73-4.12.09-6.21,0C9.18,36,4.84,39.09.22,40.75a34.64,34.64,0,0,1-.09-5.49,14.41,14.41,0,0,1,0-3C.1,32.16.31,32.24.53,32.35Z"/></g></g></svg>