<svg xmlns="http://www.w3.org/2000/svg" viewBox="0 0 15.28 59.02"><defs><style>.cls-1{fill:#ffe1e3;}</style></defs><title>chimney_3</title><g id="Layer_2" data-name="Layer 2"><g id="chimneysmoke_3"><path class="cls-1" d="M6.88,58.36C6.68,54,1,51.72.29,47.43c-.61-3.89,3.22-7.18,3.48-11.11C4,33,1.74,30.19.68,27.09a13.14,13.14,0,0,1,.5-9.64,21.55,21.55,0,0,0,1.7-3.79c.85-3.48-1.69-7-.69-10.44C3.25-.35,8.39-.61,11.39.8,14.16,2.1,16,5.45,15,8.35c-.56,1.69-1.9,3-2.55,4.66-1.39,3.53.68,7.68-.57,11.26-.85,2.42-3.16,4.39-3.08,7,.07,2.17,1.87,3.91,2.36,6a5.32,5.32,0,0,1-2.32,5.58,3,3,0,0,0-1,.74c-.47.68-.11,1.6.26,2.34l4,8C12.36,54.36,7,61.11,6.88,58.36Z"/></g></g></svg>