<svg xmlns="http://www.w3.org/2000/svg" viewBox="0 0 89.99 46.45"><defs><style>.cls-1{fill:#ffe1e3;}</style></defs><title>cloud2</title><g id="Layer_2" data-name="Layer 2"><g id="firefighter_2"><path class="cls-1" d="M82.75,45.75a46.83,46.83,0,0,0,4.16-3.34c2-2,2.76-5.79,3-8.71C91.11,19.55,77.31,17.79,68.05,23l-1.31,2.53c0-6.24.2-12.05-3-17.6A14.07,14.07,0,0,0,60.58,4C56.94,1,50.27-1,45.85.51,40.28,2.41,35.11,8,31.16,12.38c-2.78,3.12-4.8,6.72-7.31,10-.27.36-4.08-.24-4.6-.24C8.36,22.26,0,33.87,0,45v1.48Z"/></g></g></svg>