<svg xmlns="http://www.w3.org/2000/svg" viewBox="0 0 90.58 41.82"><defs><style>.cls-1{fill:#ffe1e3;}</style></defs><title>cloud</title><g id="Layer_2" data-name="Layer 2"><g id="firefighter_2"><path class="cls-1" d="M90.58,41.7a16.1,16.1,0,0,0-5.08-8.41c-2.95-2.67-6-2.93-9.3-4.75,1.57-.7,3.24-1.06,4.63-2.24a7.11,7.11,0,0,0,2.57-4.74,7.52,7.52,0,0,0-.4-3,10,10,0,0,0-9.28-6.66,6.06,6.06,0,0,0-4.08,1.39c-1,1-.94,3.67-2.62,2.64-.9-.55-1.14-3.2-1.64-4.15a24.26,24.26,0,0,0-6.82-8A17.06,17.06,0,0,0,54,1.27c-4.7-1.66-11.9-1.82-16.46.26a19.59,19.59,0,0,0-6.88,6c-3.92,4.94-5.29,9.59-5.18,15.81,0-.08-2.34-2.84-2.58-3.14a11.16,11.16,0,0,0-3.93-3,12.52,12.52,0,0,0-9.55-.49C4.1,18.68.49,24.2,0,29.88a12.54,12.54,0,0,0,2.4,8.88c3.23,4,8.13,2.95,12.63,2.95h40.1C67,41.7,78.78,41.73,90.58,41.7Z"/></g></g></svg>