<svg xmlns="http://www.w3.org/2000/svg" viewBox="0 0 22.72 24.41"><defs><style>.cls-1{fill:#0d1635;fill-rule:evenodd;}</style></defs><title>Dove</title><g id="Layer_2" data-name="Layer 2"><g id="bird"><path class="cls-1" d="M21.91,11.59a1.18,1.18,0,0,0-1.66-1.25,1.55,1.55,0,0,0-.49.4s-.14-1.05-.24-1.48a6.36,6.36,0,0,0-1.18-2.5,17.68,17.68,0,0,0-2.22-2.2c-1-.69-1.57-1.13-2.54-1.79S11.64,1.52,10.7.83A7.66,7.66,0,0,0,9.17,0a27.4,27.4,0,0,1,3.1,4,12.61,12.61,0,0,1,1.9,4.71c.35,3.22-6.28,3.4-6.58,3.4a12.66,12.66,0,0,1-1.78.11c-.31,0-5.34.06-5.34.09.05.42,7.85.67,7.6.91C7.21,14.05.7,14.62,0,15c.19.41,5.73-.64,7-.74S9.53,14,10.82,14a10.06,10.06,0,0,1,3.42.26c1.87.71.22,4-.26,5.17a27.23,27.23,0,0,1-1.78,3.38c-.17.4-.8,1.2-.77,1.62a15.63,15.63,0,0,0,5.87-5A14.48,14.48,0,0,0,19,16.21c.18-.54.27-1.1.47-1.63.29-.78,1.4-.86,2.36-2.38a6.69,6.69,0,0,0,.92-.12C22.64,12.06,21.88,11.73,21.91,11.59Z"/></g></g></svg>