<svg xmlns="http://www.w3.org/2000/svg" viewBox="0 0 995.03 228.43"><defs><style>.cls-1{fill:#ffe1e3;}</style></defs><title>final_tile_1</title><g id="Layer_2" data-name="Layer 2"><g id="background_color"><path class="cls-1" d="M0,227.81V18c0-1.11-.1-2.27,0-3.38.42-4.9,11-9.5,15.19-9.32C25,5.69,30.09,18.2,40,9.32L41.3,8c6.82-6.85,9-9.72,19-6.87L64.7,3.42l.69.44,1.2.88,6.56,5,1.39.66,1.83.73c4,1.58,8.22-1.61,11.29-3.66l2.08-1.68,2.52-1.68c4.2-2.8,8.59-2,12.55.73l2,1.68L111.11,10,114,11.24c2.71,1.16,6.56-.17,8.83-1.83l2-1.46,1.7-1.61,2.65-1.76c5-3.11,9.12-2.79,13.75.59l3.15,2.3,2.4,1.72,2.77,1.46,2.08.37,2.21.29,2.27-.22L160.1,10l2.21-1.24,1.83-1.28,2.08-1.86,1.7-1.1a12.32,12.32,0,0,1,6.58-1.79,11.18,11.18,0,0,1,6.29,1.79L182.42,6l2,1.47,2,1.74,2.27,1.46c.92.41,1.84.8,2.74,1.26,1.64.83,3.92-.53,5.42-1.19q1.53-.67,3-1.46a16.94,16.94,0,0,1,3-1.68c.37,1.53,0,3.65-.09,5.24l-.33,11.09-.47,15.94-.58,19.71L200.71,82l-.7,24-.72,24.51-.7,23.95-.65,22.29-.57,19.55L196.9,212l-.32,10.82-.14,4.83v.15Z"/><path class="cls-1" d="M196,227.81l-.1-44.57-.2-90.51-.16-71.91c0-7.77,1.38-11.08,9.05-14.11A15,15,0,0,1,214.71,6c5.18,1.7,9.16,7.16,14.6,6.78,6.1-.42,9.86-7.63,15-10.33A16.08,16.08,0,0,1,261.4,3.86l1.2.88c3.66,2.68,6.37,6,11.26,6.38,5.21.37,7.95-2.66,11.88-5.28,5.57-3.71,9.76-4.83,15.62-.37,3.65,2.77,7.39,6.37,12,6.1,6.56-.39,10.5-8.53,17-9.26,8.07-.9,13.9,9.9,22,9,5.17-.56,8.57-5.7,13.36-7.73a12,12,0,0,1,9.94.33c2.65,1.34,4.68,3.61,7,5.43,3.83,3,6.65,2.82,10.81,1.12l3.16-1.62,2.29-1.4-6.46,220.36Z"/><path class="cls-1" d="M387.74,228.09V18.23c0-7.42,7.6-13,15.19-12.7,9.8.43,14.86,12.95,24.72,4.06L429,8.24c6.82-6.85,9-9.72,19-6.87l4.36,2.32.69.44,1.2.88,6.56,5,1.39.66,1.83.73c4,1.58,8.22-1.61,11.29-3.66l2.08-1.68L480,4.42c9.88-6.59,14.89,7,23.84,7.46,7.3.36,12.06-9.11,19.37-9.24,7.08-.12,11.78,8.54,18.84,8.92,7.89.42,13.64-9.64,21.49-8.7,8.51,1,11.65,12.23,21,8.14q1.53-.67,3-1.46a16.94,16.94,0,0,1,3-1.68c.37,1.53,0,3.65-.09,5.24l-.33,11.09-.47,15.94-.58,19.71-.66,22.4-.7,24L587,130.76l-.7,23.95L585.63,177l-.57,19.55-.46,15.73-.32,10.82-.14,4.83v.15Z"/><path class="cls-1" d="M583.74,228.09l-.12-53.81-.22-101.71c0-20.17-.12-40.33-.07-60.5a45.26,45.26,0,0,1,9.33-5.2,15.22,15.22,0,0,1,10.48-.36c4.53,1.71,8,6.29,12.79,6.53,6.5.32,10.16-6.83,15.19-9.79,6-3.52,12.19-2.77,17.95.86,3.9,2.46,6.8,6.45,11.63,7.2a13.15,13.15,0,0,0,8.37-1.85C673.46,7,676,2.2,681.69,2.56c6,.38,8.25,5.63,13.11,7.71l2.9,1.24c3.21,1.38,7.9-2.89,10.48-.77,1,.86,1.48,4.92,1.89,6.29l2.55-.24,3.64,1.09L728,16.19l7.16-1.09,3.4.24-3.4-.24L731.32,14,729.8,7.75l2.4,1.72L735,10.93l2.08.37,2.21.29,2.27-.22,11.27,2.76,3.64,1.94h4.73l2.55-2.18,1.58,1.21,1.46-1.94,1.82,2.31,2.31-1.58,1.48-3,2.14,1,1.2.58h.91l1.81-.6,1.71,216.22Z"/><path class="cls-1" d="M666.69,228.36V18.5c0-1.11-.1-2.27,0-3.38.42-4.9,11-9.5,15.19-9.32,9.8.43,14.86,12.95,24.72,4.06l1.35-1.35C713.71,2.73,719.45-1.9,727.82,2c6.31,3,11.71,11,19.47,9.76,6.24-1,10.16-8.46,16.47-8.84,4.63-.28,8.43,3.33,12.2,6,5.59,4,10.78,3.27,15.95-.83,3.06-2.42,5.3,6.35,9.2,6.3,6.42-.07,11.2,0,17.47,1.39,9.13,2.05,14.1-12.52,22.57-12.56,3.1,0,2.46,6.52,4.77,8.17,4.55,3.25,11.49,2.48,17.56-.17q1.53-.67,3-1.46C868.75,8.59,876.52,5,879,7.33c5.51,5.14.4,140.53.36,170.7,0,16.38,1.61,33.74-.11,50.06,0,0-12.84.27-12.88.27Z"/><path class="cls-1" d="M780.18,228.43V18.57c0-1.11-.1-2.27,0-3.38.42-4.9,11-9.5,15.19-9.32,9.8.43,14.86,12.95,24.72,4.06l1.35-1.35c5.77-5.79,11.51-10.41,19.88-6.49,6.31,3,11.71,11,19.47,9.76,6.24-1,10.16-8.46,16.47-8.84,4.63-.28,8.43,3.33,12.2,6,5.59,4,10.78,3.27,15.95-.83C908.45,5.78,911.72,3,915.62,3c6.42-.07,10.72,7.07,17,8.48,9.13,2.05,13.56-8.09,22-8.13,9.2,0,13.18,12,22.33,8q1.53-.67,3-1.46c2.29-1.23,10.05-4.79,12.52-2.49,5.51,5.14.4,140.53.36,170.7,0,16.38,1.61,33.74-.11,50.06,0,0-12.84.27-12.88.27Z"/></g></g></svg>