<svg xmlns="http://www.w3.org/2000/svg" viewBox="0 0 869.62 228.36"><defs><style>.cls-1{fill:#ffe1e3;}</style></defs><title>final_tile</title><g id="Layer_2" data-name="Layer 2"><g id="background_color"><path class="cls-1" d="M0,227.81V18c0-1.11-.1-2.27,0-3.38.42-4.9,11-9.5,15.19-9.32C25,5.69,30.09,18.2,40,9.32L41.3,8c6.82-6.85,9-9.72,19-6.87L64.7,3.42l.69.44,1.2.88,6.56,5,1.39.66,1.83.73c4,1.58,8.22-1.61,11.29-3.66l2.08-1.68,2.52-1.68c4.2-2.8,8.59-2,12.55.73l2,1.68L111.11,10,114,11.24c2.71,1.16,6.56-.17,8.83-1.83l2-1.46,1.7-1.61,2.65-1.76c5-3.11,9.12-2.79,13.75.59l3.15,2.3,2.4,1.72,2.77,1.46,2.08.37,2.21.29,2.27-.22L160.1,10l2.21-1.24,1.83-1.28,2.08-1.86,1.7-1.1a12.32,12.32,0,0,1,6.58-1.79,11.18,11.18,0,0,1,6.29,1.79L182.42,6l2,1.47,2,1.74,2.27,1.46c.92.41,1.84.8,2.74,1.26,1.64.83,3.92-.53,5.42-1.19q1.53-.67,3-1.46a16.94,16.94,0,0,1,3-1.68c.37,1.53,0,3.65-.09,5.24l-.33,11.09-.47,15.94-.58,19.71L200.71,82l-.7,24-.72,24.51-.7,23.95-.65,22.29-.57,19.55L196.9,212l-.32,10.82-.14,4.83v.15Z"/><path class="cls-1" d="M196,227.81l-.47-216.14.68-.29,1.14-.57,1.15-.65,1.33-.81.86-.55,1-.64,1.16-.72,1.78-.33.8-.43,1.28-.6.69-.27.71-.24.75-.2.73-.14.82-.08h1l1,.12,1.11.27.71.24.74.3.91.44,1.21.66,1,.61,1,.68,1.16.78,2.21,1.43,1.17.67L225,12l.89.35,1.11.32,1,.17,1,0,.85-.07,1.34-.32,1.08-.44,1.1-.62,1.55-1.16,1-.94L237.3,8c7.54-7.57,14.7-10,24.09-4.11l1.2.88,6.56,5,1.39.66,1.83.73,2.21-.07,2.65-.15,2.08-.59,2.14-1.24,2.21-1.61,2.08-1.68,2.52-1.68,2.08-1.61,2.08-.37h1.51l1.58.37,3.28,1,2,1.39,2,1.68L307.11,10l2.9,1.24,2.33.29,2.08-.07,1.39-.51,3-1.54,2-1.46,1.7-1.61,2.65-1.76,2.46-1.54,2-.88H333l1.77.59,2,.8L339,5.17l3.15,2.3,2.4,1.72,2.77,1.46,2.08.37,2.21.29,2.27-.22L356.1,10l2.21-1.24,1.83-1.28,2.08-1.86,1.7-1.1,2.33-1.32,2.27-.44h4.29l2.27.73,1.7,1L378.42,6l2,1.47,2,1.74,2.27,1.46,2.14,1,1.2.58h.91l1.81-.6,2.72-1.11,3.16-1.62,2.29-1.4-6.46,220.36Z"/><path class="cls-1" d="M387.74,228.09V18.23c0-1.11-.1-2.27,0-3.38.42-4.9,11-9.5,15.19-9.32,9.8.43,14.86,12.95,24.72,4.06L429,8.24c6.82-6.85,9-9.72,19-6.87l4.36,2.32.69.44,1.2.88,6.56,5,1.39.66,1.83.73c4,1.58,8.22-1.61,11.29-3.66l2.08-1.68,2.52-1.68c4.2-2.8,8.59-2,12.55.73l2,1.68,4.29,3.44,2.89,1.24c2.71,1.16,6.56-.17,8.83-1.83l2-1.46,1.7-1.61,2.65-1.76c5-3.11,9.12-2.79,13.75.59l3.15,2.3,2.4,1.72L539,10.93l2.08.37,2.21.29,2.27-.22,2.27-1.1L550,9l1.83-1.28,2.08-1.86,1.7-1.1A12.32,12.32,0,0,1,562.19,3a11.18,11.18,0,0,1,6.29,1.79l1.64,1.46,2,1.47,2,1.74,2.27,1.46c.92.41,1.84.8,2.74,1.26,1.64.83,3.92-.53,5.42-1.19q1.53-.67,3-1.46a16.94,16.94,0,0,1,3-1.68c.37,1.53,0,3.65-.09,5.24l-.33,11.09-.47,15.94-.58,19.71-.66,22.4-.7,24L587,130.76l-.7,23.95L585.63,177l-.57,19.55-.46,15.73-.32,10.82-.14,4.83v.15Z"/><path class="cls-1" d="M583.74,228.09,583.27,12l.68-.29,1.14-.57,1.15-.65,1.33-.81.86-.55,1-.64,1.16-.72,1.78-.33.8-.43,1.28-.6.69-.27.71-.24.75-.2.73-.14.82-.08h1l1,.12,1.11.27.71.24.74.3.91.44,1.21.66,1,.61,1,.68,1.16.78L610.25,11l1.17.67,1.23.6.89.35,1.11.32,1,.17,1,0,.85-.07,1.34-.32L620,12.3l1.1-.62,1.55-1.16,1-.94L625,8.24c7.54-7.57,14.7-10,24.09-4.11l1.2.88,6.56,5,1.39.66,1.83.73,2.21-.07,2.65-.15,2.08-.59,2.14-1.24,2.21-1.61c1.05-.85,2.1-1.61,3.2-2.38,1.43-1,2.7-2.31,4.42-2.79a9.89,9.89,0,0,1,5.39.53,13.25,13.25,0,0,1,4.14,2l2,1.68,4.29,3.44,2.9,1.24,2.33.29,2.08-.07,1.39-.51,3-1.54,1.6.92L710.08,17l2.55-.24,3.64,1.09L728,16.19l7.16-1.09,3.4.24-3.4-.24L731.32,14,729.8,7.75l2.4,1.72L735,10.93l2.08.37,2.21.29,2.27-.22,11.27,2.76,3.64,1.94h4.73l2.55-2.18,1.58,1.21,1.46-1.94,1.82,2.31,2.31-1.58,1.48-3,2.14,1,1.2.58h.91l1.81-.6,1.71,216.22Z"/><path class="cls-1" d="M666.69,228.36V18.5c0-1.11-.1-2.27,0-3.38.42-4.9,11-9.5,15.19-9.32,9.8.43,14.86,12.95,24.72,4.06l1.35-1.35c6.82-6.85,9-9.72,19-6.87L731.34,4l.69.44,1.2.88,6.56,5,1.39.66,1.83.73c4,1.58,8.22-1.61,11.29-3.66l2.08-1.68L758.9,4.7c4.2-2.8,8.59-2,12.55.73l2,1.68,4.29,3.44,2.89,1.24c2.71,1.16,6.56-.17,8.83-1.83l2-1.46,1.7-1.61,2.65-1.76c5-3.11,9.12-2.79,13.75.59L812.74,8l2.4,1.72,2.77,1.46,2.08.37,2.21.29,2.27-.22,2.27-1.1,2.21-1.24L830.78,8l2.08-1.86,1.7-1.1a12.32,12.32,0,0,1,6.58-1.79,11.18,11.18,0,0,1,6.29,1.79l1.64,1.46,2,1.47,2,1.74,2.27,1.46c.92.41,1.84.8,2.74,1.26,1.64.83,3.92-.53,5.42-1.19q1.53-.67,3-1.46a16.94,16.94,0,0,1,3-1.68c.37,1.53,0,3.65-.09,5.24l-.33,11.09-.47,15.94L868,60.12l-.66,22.4-.7,24L865.93,131l-.7,23.95-.65,22.29L864,196.82l-.46,15.73-.32,10.82-.14,4.83v.15Z"/></g></g></svg>