<svg xmlns="http://www.w3.org/2000/svg" viewBox="0 0 766.53 222.5"><defs><style>.cls-1{fill:ivory;}</style></defs><title>ivory</title><g id="Layer_2" data-name="Layer 2"><g id="background_color"><path class="cls-1" d="M145,1.06c0,.32-2.94-.35-3.2-.41-1.7-.39-3.07-.91-5.19-.5-.93.18-1.69.45-2.56.66a9.14,9.14,0,0,1-3,.26c-1.36-.14-2.12-.69-3.43-.87a10.59,10.59,0,0,0-3.31.16c-1,.19-1.92.46-3,.63-3.4.55-4.84-.79-7.93-.8-2.45,0-3.55,1.07-5.77,1.15a12.65,12.65,0,0,1-4.09-.81,12.86,12.86,0,0,0-5.74.17A13.77,13.77,0,0,1,92.06,1,30.06,30.06,0,0,0,88.33.16a6.67,6.67,0,0,0-1.58.11,20.37,20.37,0,0,1-3.23.84,15.54,15.54,0,0,1-4-.66,12.49,12.49,0,0,0-5.57.1c-2.8.95-4.14,219-4.14,221.88,0,.15,75.16,0,75.16,0S145,1.51,145,1.06Z"/><path class="cls-1" d="M215.5,1.06c0,.32-2.94-.35-3.2-.41-1.7-.39-3.07-.91-5.19-.5-.93.18-1.69.45-2.56.66a9.14,9.14,0,0,1-3,.26c-1.36-.14-2.12-.69-3.43-.87a10.59,10.59,0,0,0-3.31.16c-1,.19-1.92.46-3,.63-3.4.55-4.84-.79-7.93-.8-2.45,0-3.55,1.07-5.77,1.15a12.65,12.65,0,0,1-4.09-.81,12.86,12.86,0,0,0-5.74.17A13.77,13.77,0,0,1,162.6,1a30.06,30.06,0,0,0-3.73-.83,6.67,6.67,0,0,0-1.58.11,20.37,20.37,0,0,1-3.23.84,15.54,15.54,0,0,1-4-.66,12.49,12.49,0,0,0-5.57.1c-2.8.95-4.14,219-4.14,221.88,0,.15,75.16,0,75.16,0S215.5,1.51,215.5,1.06Z"/><path class="cls-1" d="M75.16,1.06c0,.32-2.94-.35-3.2-.41-1.7-.39-3.07-.91-5.19-.5-.93.18-1.69.45-2.56.66a9.14,9.14,0,0,1-3,.26C59.9.92,59.14.37,57.83.18a10.59,10.59,0,0,0-3.31.16c-1,.19-1.92.46-3,.63-3.4.55-4.84-.79-7.93-.8-2.45,0-3.55,1.07-5.77,1.15A12.65,12.65,0,0,1,33.77.51,12.86,12.86,0,0,0,28,.68,13.77,13.77,0,0,1,22.26,1,30.06,30.06,0,0,0,18.54.16,6.67,6.67,0,0,0,17,.28a20.37,20.37,0,0,1-3.23.84,15.54,15.54,0,0,1-4-.66,12.49,12.49,0,0,0-5.57.1C1.34,1.5,0,219.58,0,222.44c0,.15,75.16,0,75.16,0S75.16,1.51,75.16,1.06Z"/><path class="cls-1" d="M285.84,1.06c0,.32-2.94-.35-3.2-.41-1.7-.39-3.07-.91-5.19-.5-.93.18-1.69.45-2.56.66a9.14,9.14,0,0,1-3,.26c-1.36-.14-2.12-.69-3.43-.87a10.59,10.59,0,0,0-3.31.16c-1,.19-1.92.46-3,.63-3.4.55-4.84-.79-7.93-.8-2.45,0-3.55,1.07-5.77,1.15a12.65,12.65,0,0,1-4.09-.81,12.86,12.86,0,0,0-5.74.17,13.77,13.77,0,0,1-5.76.31,30.06,30.06,0,0,0-3.73-.83,6.67,6.67,0,0,0-1.58.11,20.37,20.37,0,0,1-3.23.84,15.54,15.54,0,0,1-4-.66,12.49,12.49,0,0,0-5.57.1c-2.8.95-4.14,219-4.14,221.88,0,.15,75.16,0,75.16,0S285.84,1.51,285.84,1.06Z"/><path class="cls-1" d="M355.84,1.06c0,.32-2.94-.35-3.2-.41-1.7-.39-3.07-.91-5.19-.5-.93.18-1.69.45-2.56.66a9.14,9.14,0,0,1-3,.26c-1.36-.14-2.12-.69-3.43-.87a10.59,10.59,0,0,0-3.31.16c-1,.19-1.92.46-3,.63-3.4.55-4.84-.79-7.93-.8-2.45,0-3.55,1.07-5.77,1.15a12.65,12.65,0,0,1-4.09-.81,12.86,12.86,0,0,0-5.74.17,13.77,13.77,0,0,1-5.76.31,30.06,30.06,0,0,0-3.73-.83,6.67,6.67,0,0,0-1.58.11,20.37,20.37,0,0,1-3.23.84,15.54,15.54,0,0,1-4-.66,12.49,12.49,0,0,0-5.57.1c-2.8.95-4.14,219-4.14,221.88,0,.15,75.16,0,75.16,0S355.84,1.51,355.84,1.06Z"/><path class="cls-1" d="M426.71,1.06c0,.32-2.94-.35-3.2-.41-1.7-.39-3.07-.91-5.19-.5-.93.18-1.69.45-2.56.66a9.14,9.14,0,0,1-3,.26c-1.36-.14-2.12-.69-3.43-.87a10.59,10.59,0,0,0-3.31.16c-1,.19-1.92.46-3,.63-3.4.55-4.84-.79-7.93-.8-2.45,0-3.55,1.07-5.77,1.15a12.65,12.65,0,0,1-4.09-.81,12.86,12.86,0,0,0-5.74.17,13.77,13.77,0,0,1-5.76.31,30.06,30.06,0,0,0-3.73-.83,6.67,6.67,0,0,0-1.58.11,20.37,20.37,0,0,1-3.23.84,15.54,15.54,0,0,1-4-.66,12.49,12.49,0,0,0-5.57.1c-2.8.95-4.14,219-4.14,221.88,0,.15,75.16,0,75.16,0S426.71,1.51,426.71,1.06Z"/><path class="cls-1" d="M496.18,1.06c0,.32-2.94-.35-3.2-.41-1.7-.39-3.07-.91-5.19-.5-.93.18-1.69.45-2.56.66a9.14,9.14,0,0,1-3,.26c-1.36-.14-2.12-.69-3.43-.87a10.59,10.59,0,0,0-3.31.16c-1,.19-1.92.46-3,.63-3.4.55-4.84-.79-7.93-.8-2.45,0-3.55,1.07-5.77,1.15a12.65,12.65,0,0,1-4.09-.81A12.86,12.86,0,0,0,449,.68a13.77,13.77,0,0,1-5.76.31,30.06,30.06,0,0,0-3.73-.83A6.67,6.67,0,0,0,438,.28a20.37,20.37,0,0,1-3.23.84,15.54,15.54,0,0,1-4-.66,12.49,12.49,0,0,0-5.57.1c-2.8.95-4.14,219-4.14,221.88,0,.15,75.16,0,75.16,0Z"/><path class="cls-1" d="M560.87,1.06c0,.32-2.94-.35-3.2-.41-1.7-.39-3.07-.91-5.19-.5-.93.18-1.69.45-2.56.66a9.14,9.14,0,0,1-3,.26c-1.36-.14-2.12-.69-3.43-.87a10.59,10.59,0,0,0-3.31.16c-1,.19-1.92.46-3,.63-3.4.55-4.84-.79-7.93-.8-2.45,0-3.55,1.07-5.77,1.15a12.65,12.65,0,0,1-4.09-.81,12.86,12.86,0,0,0-5.74.17A13.77,13.77,0,0,1,508,1a30.06,30.06,0,0,0-3.73-.83,6.67,6.67,0,0,0-1.58.11,20.37,20.37,0,0,1-3.23.84,15.54,15.54,0,0,1-4-.66,12.49,12.49,0,0,0-5.57.1c-2.8.95-4.14,219-4.14,221.88,0,.15,75.16,0,75.16,0S560.87,1.51,560.87,1.06Z"/><path class="cls-1" d="M628.09,1.06c0,.32-2.94-.35-3.2-.41-1.7-.39-3.07-.91-5.19-.5-.93.18-1.69.45-2.56.66a9.14,9.14,0,0,1-3,.26c-1.36-.14-2.12-.69-3.43-.87a10.59,10.59,0,0,0-3.31.16c-1,.19-1.92.46-3,.63-3.4.55-4.84-.79-7.93-.8-2.45,0-3.55,1.07-5.77,1.15a12.65,12.65,0,0,1-4.09-.81A12.86,12.86,0,0,0,581,.68a13.77,13.77,0,0,1-5.76.31,30.06,30.06,0,0,0-3.73-.83,6.67,6.67,0,0,0-1.58.11,20.37,20.37,0,0,1-3.23.84,15.54,15.54,0,0,1-4-.66,12.49,12.49,0,0,0-5.57.1c-2.8.95-4.14,219-4.14,221.88,0,.15,75.16,0,75.16,0S628.09,1.51,628.09,1.06Z"/><path class="cls-1" d="M695,1.06c0,.32-2.94-.35-3.2-.41-1.7-.39-3.07-.91-5.19-.5-.93.18-1.69.45-2.56.66a9.14,9.14,0,0,1-3,.26C679.76.92,679,.37,677.69.18a10.59,10.59,0,0,0-3.31.16c-1,.19-1.92.46-3,.63-3.4.55-4.84-.79-7.93-.8-2.45,0-3.55,1.07-5.77,1.15a12.65,12.65,0,0,1-4.09-.81,12.86,12.86,0,0,0-5.74.17,13.77,13.77,0,0,1-5.76.31,30.06,30.06,0,0,0-3.73-.83,6.67,6.67,0,0,0-1.58.11,20.37,20.37,0,0,1-3.23.84,15.54,15.54,0,0,1-4-.66,12.49,12.49,0,0,0-5.57.1c-2.8.95-4.14,219-4.14,221.88,0,.15,75.16,0,75.16,0S695,1.51,695,1.06Z"/><path class="cls-1" d="M766.53,1.06c0,.32-2.94-.35-3.2-.41-1.7-.39-3.07-.91-5.19-.5-.93.18-1.69.45-2.56.66a9.14,9.14,0,0,1-3,.26c-1.36-.14-2.12-.69-3.43-.87a10.59,10.59,0,0,0-3.31.16c-1,.19-1.92.46-3,.63-3.4.55-4.84-.79-7.93-.8-2.45,0-3.55,1.07-5.77,1.15a12.65,12.65,0,0,1-4.09-.81,12.86,12.86,0,0,0-5.74.17,13.77,13.77,0,0,1-5.76.31A30.06,30.06,0,0,0,709.9.16a6.67,6.67,0,0,0-1.58.11,20.37,20.37,0,0,1-3.23.84,15.54,15.54,0,0,1-4-.66,12.49,12.49,0,0,0-5.57.1c-2.8.95-4.14,219-4.14,221.88,0,.15,75.16,0,75.16,0S766.53,1.51,766.53,1.06Z"/></g></g></svg>