<svg xmlns="http://www.w3.org/2000/svg" viewBox="0 0 145.14 58.83"><defs><style>.cls-1{fill:#ff494b;}.cls-2{fill:#fcc;}.cls-3{fill:none;stroke:#fcc;stroke-miterlimit:10;stroke-width:2.5px;}</style></defs><title>lettering_1</title><g id="Layer_2" data-name="Layer 2"><g id="lettering"><path class="cls-1" d="M0,19.47l2.62-2.63,2.6-.5.08.56A5.2,5.2,0,0,0,6,19a2.41,2.41,0,0,0,.59.69,3.34,3.34,0,0,0,2.31.46l.4-.1-.63,2.45-1.94.79-2.54-.48L2.68,20.85l-.19-1.72L0,19.68Z"/><path class="cls-1" d="M11.15,7.7l2.58-2.08-.43-.75A6.3,6.3,0,0,0,10.8,2.45,4.91,4.91,0,0,0,7.59,2.1,6.84,6.84,0,0,0,3.92,4.34L2.84,6l.53.66,5.2-.7L10.7,7.71l.17.19Z"/><path class="cls-1" d="M14.28,16.17a6.62,6.62,0,0,1-.22,2.69A8.32,8.32,0,0,1,12.18,22c-.25.28-1.78,1.25-1.8,1.52l.45-4.87L9.69,16,5,13.47,2.43,11.19V8.89l1-1.26L5.67,6.5l.46.57L6,7.56c.26,1.36,1.28,2,2.51,2.56a24.16,24.16,0,0,1,2.81,1.3A6.49,6.49,0,0,1,14.28,16.17Z"/><path class="cls-2" d="M9.26,8.81l1.61-.92L10.41,7a5.57,5.57,0,0,0-4-2.28A5.49,5.49,0,0,0,4.62,5a4.3,4.3,0,0,0-1.69.86,6.45,6.45,0,0,0-1.2,1.61A5.17,5.17,0,0,0,1.41,12c.79,1.85,2.89,2.66,4.6,3.4a6.28,6.28,0,0,1,2.8,2.2,3.56,3.56,0,0,1,.36,2.27,4,4,0,0,1-.42,1.33,3.27,3.27,0,0,1-2.92,1.67,3.16,3.16,0,0,1-2.9-2.38l-.08-1,0-.41L0,19.68l.45,1.61.74,1.56a6.56,6.56,0,0,0,1.54,1.69,5.14,5.14,0,0,0,2.59,1.12,6,6,0,0,0,4.15-1.25,6.12,6.12,0,0,0,1.1-1.17,10.12,10.12,0,0,0,.79-1.54,7.13,7.13,0,0,0,.51-3.4v-.07c-.24-2-1.79-3.42-3.5-4.36C7.21,13.24,6,12.74,4.89,12a3.54,3.54,0,0,1-1.1-1A2.55,2.55,0,0,1,4.44,7.8,3.73,3.73,0,0,1,6.67,7a2.17,2.17,0,0,1,1.15.25,2.31,2.31,0,0,1,.73.82A5.8,5.8,0,0,0,9,8.9Z"/><polygon class="cls-1" points="55.83 37.69 53.32 37.69 55.83 35.2 58.22 35.18 58.47 55.79 56.08 58.05 55.83 37.69"/><polygon class="cls-2" points="53.32 37.69 53.36 58.1 56.08 58.05 55.83 37.69 53.32 37.69"/><polygon class="cls-1" points="68.79 37.77 66.23 37.77 68.64 35.15 71.31 35.15 71.47 52.55 77.04 52.55 77.04 55.7 74.51 58.08 74.58 55.31 69.14 55.34 68.79 37.77"/><polygon class="cls-2" points="66.23 38.15 66.44 58.07 74.51 58.08 74.58 55.31 69.14 55.34 68.79 37.77 66.23 37.77 66.23 38.15"/><polygon class="cls-1" points="85.48 23.72 87.67 21.68 78.9 10.18 76.5 12.99 85.48 23.72"/><polygon class="cls-1" points="74.77 23.73 77.08 21.44 77.08 16.88 74.61 14.09 74.3 15.49 74.45 23.72 74.77 23.73"/><polygon class="cls-1" points="71.64 3.5 74.32 3.5 74.53 11.54 77.19 9 76.8 1.17 74.45 1.17 71.64 3.5"/><polygon class="cls-1" points="85.62 3.6 87.79 1.17 84.07 1.17 81.96 3.6 85.62 3.6"/><polygon class="cls-2" points="74.45 23.72 71.64 23.72 71.64 3.5 74.32 3.5 74.53 11.54 81.96 3.6 85.62 3.6 77 12.85 85.48 23.72 81.91 23.86 74.77 14.46 74.45 23.72"/><polygon class="cls-1" points="44.46 37.12 47 34.45 49.91 34.45 41.73 56.52 39.3 58.83 47.49 37.18 44.46 37.12"/><polygon class="cls-1" points="33.85 37 31.12 37 33.36 34.45 36.45 34.45 41.06 47 39.28 52.37 33.85 37"/><polygon class="cls-2" points="39.02 58.09 31.12 37 33.85 37 39.3 52.13 44.46 37.12 47.49 37.18 39.3 58.83 39.02 58.09"/><polygon class="cls-1" points="106.55 40.27 109.13 37.97 109.13 35.41 98.63 35.2 96.65 37.57 106.52 37.73 106.55 40.27"/><polygon class="cls-1" points="106.36 45.64 106.36 48.26 109.13 45.8 108.87 43.14 101.66 42.93 101.66 40.27 98.74 40.27 98.74 46.02 106.36 45.64"/><polygon class="cls-1" points="101.66 48.26 101.66 52.85 109.13 52.85 109.13 55.36 106.94 58.03 106.83 55.3 99.05 55.25 99.05 48.26 101.66 48.26"/><polygon class="cls-2" points="96.44 57.88 106.94 58.03 106.83 55.3 99.05 55.25 99.05 48.26 106.36 48.26 106.39 45.46 98.95 45.59 98.74 40.27 106.55 40.27 106.59 37.73 96.65 37.57 96.44 57.88"/><polygon class="cls-1" points="102.78 4.18 117.04 18.71 117.04 13.52 105.04 1.31 102.78 4.18"/><polygon class="cls-1" points="119.15 4.7 116.5 4.7 118.7 2.2 121.45 2.01 122.77 23.38 120.56 25.85 119.15 4.7"/><polygon class="cls-1" points="108.78 13.93 109.26 22.71 106.93 25.11 105.87 11.16 108.78 13.93"/><polygon class="cls-2" points="103.67 25.3 106.86 25.3 105.87 11.16 120.41 26.05 119.15 4.7 116.5 4.7 117.04 18.71 102.78 4.18 103.67 25.3"/><polygon class="cls-1" points="39.52 24.36 42.07 21.93 38.24 0 35.74 2.48 39.52 24.36"/><polygon class="cls-1" points="24.96 0 31.05 13.84 29.1 18.09 22.58 2.48 24.96 0"/><polygon class="cls-1" points="23.32 11.13 22.04 24 24.44 21.56 25.41 15.51 23.32 11.13"/><polygon class="cls-1" points="29.17 24.55 34.3 11.24 35.1 14.95 31.7 22.91 29.17 24.55"/><polygon class="cls-2" points="36.69 24.36 39.52 24.36 35.74 2.48 29.1 18.09 22.58 2.48 19.18 24.09 22.04 24 23.64 11.94 29.17 24.55 34.47 11.98 36.69 24.36"/><path class="cls-1" d="M52,6.71c-.74,1.87-1.62,3.67-1.54,5.73a7.86,7.86,0,0,0,2,5,7.35,7.35,0,0,0,5.2,2.32c1.68,0,3.1-.76,4.61-1.39L59.05,23H51.28L48.42,20.6l-1.25-2.76-1.61-4.06,1.32-3.25,2.45-3.35,2.49-.64Z"/><polygon class="cls-1" points="49.05 5.5 51.59 3.21 52.56 2.6 53.62 1.83 54.56 1.44 55.58 1.2 57.2 1.07 58.63 1.23 60.5 1.71 61.95 2.33 63.84 3.74 65 4.99 65.83 6.3 66.61 7.97 67.21 10.18 67.44 12.68 67.44 14.31 67.07 15.86 66.45 17.32 65.64 18.52 63.08 21.31 62 22.16 63.93 17.18 64.36 12.44 63.2 9.68 59.83 6.07 54.7 4.39 50.16 5.64 49.05 5.5"/><ellipse class="cls-3" cx="54.89" cy="14.31" rx="9.46" ry="9.65"/><path class="cls-1" d="M144.31,6.32,141.72,8.7l-1.84-1.52-1-1-1.41-.87-.77-.4-1.83-.28h-1.46l-2.22.59-1.78,1L128,7.25l2.54-2.5L132,3.49l1.1-.67,1.35-.51a7.28,7.28,0,0,1,5.08.27,10.29,10.29,0,0,1,3.8,2.76Z"/><path class="cls-1" d="M135.56,14.86l2-2.37,7.63-.12v3.2a5.35,5.35,0,0,1-.47,1.84,11,11,0,0,1-1.62,2.47q-.39.51-.79,1a7.79,7.79,0,0,1-.86,1c-.3.25-1.49,1.17-1.84,1.36s2.3-2.58,2.3-2.58l.59-1v-2l.27-2.83Z"/><path class="cls-1" d="M139.23,19.49l-.89.43a6.49,6.49,0,0,1-1.55.38,5.35,5.35,0,0,1-2.41-.58,7.37,7.37,0,0,1-1.89-1.44,11.27,11.27,0,0,1-1.41-1.57,7,7,0,0,1-1.2-4A6.27,6.27,0,0,1,130,11l.36-1.3,1-2.22-2.83,1.88-1,1.73L127,12.81l.28,2V16.1a12.14,12.14,0,0,0,.21,1.37,6.71,6.71,0,0,0,.71,1.93,8.83,8.83,0,0,0,3.19,2.74,12.39,12.39,0,0,0,1.66.7h2.07l1.43-.33,1.61-.6.76-1.42.69-.74.56-.82Z"/><path class="cls-2" d="M140,10.26l1.71-1.56a6.78,6.78,0,0,0-1.12-1.34c-.29-.23-.6-.43-.91-.65,0-.09-.73-.53-.83-.6-.29-.21-.59-.41-.9-.6a6.57,6.57,0,0,0-2-.82,8.44,8.44,0,0,0-1.82-.15,5.24,5.24,0,0,0-1.77.19,11.94,11.94,0,0,0-3.24,1.46,9.29,9.29,0,0,0-2.06,2.1,12.19,12.19,0,0,0-2.16,5.63,10.33,10.33,0,0,0,.23,3.89,11.77,11.77,0,0,0,3,5.1,7.43,7.43,0,0,0,2.27,1.71,8.35,8.35,0,0,0,3.15.7,10,10,0,0,0,3.11-.15,7,7,0,0,0,2.79-1.61A12,12,0,0,0,141,22a11,11,0,0,0,1.33-2,3.76,3.76,0,0,0,.24-1.47c0-.27.16-3.65.19-3.65h-7.16l-.16,2.62,4.84-.08a4.87,4.87,0,0,1-.16.68,5.93,5.93,0,0,1-.43,1,10.75,10.75,0,0,1-1.52,2.21,3.38,3.38,0,0,1-1,.81,8.14,8.14,0,0,1-1.4.47,6.33,6.33,0,0,1-3,.06c-2.07-.47-3.34-1.95-4.59-3.53a9.47,9.47,0,0,1-.74-2,17.12,17.12,0,0,1-.18-2.35,4.74,4.74,0,0,1,.29-2.39A17.31,17.31,0,0,1,129,9.71a9,9,0,0,1,3-2.54,3,3,0,0,1,.51-.21,3.66,3.66,0,0,1,.52-.1,5.72,5.72,0,0,1,3.33.47,8.83,8.83,0,0,1,2,1.37C138.55,8.84,139.91,10.36,140,10.26Z"/><polygon class="cls-1" points="84.82 37.79 82.27 37.79 84.67 35.18 87.35 35.18 87.51 52.57 93.08 52.57 93.08 55.72 90.55 58.1 90.61 55.34 85.17 55.37 84.82 37.79"/><polygon class="cls-2" points="82.27 38.18 82.48 58.1 90.55 58.1 90.61 55.34 85.17 55.37 84.82 37.79 82.27 37.79 82.27 38.18"/><polygon class="cls-1" points="93.37 3.57 90.86 3.57 93.37 1.07 95.77 1.06 96.01 21.67 93.63 23.93 93.37 3.57"/><polygon class="cls-2" points="90.86 3.57 90.91 23.97 93.63 23.93 93.37 3.57 90.86 3.57"/></g></g></svg>