<svg xmlns="http://www.w3.org/2000/svg" viewBox="0 0 35.47 56.31"><defs><style>.cls-1{fill:#ffe1e3;}</style></defs><title>lower_1</title><g id="Layer_2" data-name="Layer 2"><g id="lowerwindowsmoke_1"><path class="cls-1" d="M35.23,55c.74-1.22-.38-2.84-1.72-3.34s-2.83-.33-4.24-.6-2.9-1.29-2.84-2.72c0-.77.52-1.49.42-2.26C26.58,44,22.77,44.36,22,42.37c-.58-1.54,1.2-3.21.68-4.77s-2.58-1.68-3.46-3c-.65-.94-.5-2.23-1-3.23-.91-1.68-3.63-1.71-4.88-.27a4.53,4.53,0,0,0-.06,5.34c.65,1,1.58,1.73,2.16,2.74s.68,2.47-.23,3.2c-1.23,1-3.07-.19-3.79-1.59s-1-3.09-2.14-4.16c-1-.91-2.51-1.21-3.28-2.31-1.87-2.65,2.28-5.69,2.52-8.92.12-1.59-.74-3.06-1.3-4.55C5,15,7.58,8.25,5.82,2.23c-.77-2.64-4.31-3.3-4.44.06,0,1.15.47,2.25.54,3.4.14,2.4-1.65,4.59-1.52,7,.1,1.87,1.37,3.55,1.36,5.43a13.11,13.11,0,0,1-1.14,4C-.65,25.9.27,30.07,1.2,34a9.2,9.2,0,0,0,1.07,2.95C2.76,37.7,3.46,38.29,4,39s.83,1.65,1.3,2.44c2,3.37,6.41,4.19,10.22,5.12a5.52,5.52,0,0,1,2.27,1,7.41,7.41,0,0,1,1.47,2.09A13.88,13.88,0,0,0,33,56.16,3.07,3.07,0,0,0,35.23,55Z"/></g></g></svg>