<svg xmlns="http://www.w3.org/2000/svg" viewBox="0 0 10.21 30.06"><defs><style>.cls-1{fill:#ffe1e3;}</style></defs><title>lower_2</title><g id="Layer_2" data-name="Layer 2"><g id="lowerwindowsmoke_2"><path class="cls-1" d="M8.63,29.06a3.47,3.47,0,0,0-.39-2.84C7.59,25.09,6.64,24,6.66,22.71c0-.81.4-1.58.33-2.39-.09-1-.84-1.78-1.11-2.73-.48-1.68.61-3.46.3-5.18-.25-1.37-1.36-2.77-.7-4C6,7.56,7.05,7.34,7.93,6.9a4,4,0,0,0,2.15-4.54C8.73-2.21,3.62.74,2.74,3.82A34,34,0,0,1,1.53,8.49C1.19,9.25.71,9.94.42,10.72a10.51,10.51,0,0,0-.29,4.71,10.2,10.2,0,0,0,.79,3.65,15.23,15.23,0,0,1,.78,1.51c.53,1.46-.11,3.11.25,4.63a7.26,7.26,0,0,0,2.37,3.34c1,1,2.57,2,3.74,1.22A1.59,1.59,0,0,0,8.63,29.06Z"/></g></g></svg>