<svg xmlns="http://www.w3.org/2000/svg" viewBox="0 0 13.01 44.13"><defs><style>.cls-1{fill:#ffe1e3;}</style></defs><title>lower_3</title><g id="Layer_2" data-name="Layer 2"><g id="lowerwindowsmoke_3"><path class="cls-1" d="M8.4,22A7.58,7.58,0,0,1,8,20.31c-.22-1.68.33-3.38.2-5.07-.09-1.2-.52-2.35-.59-3.55A15.9,15.9,0,0,1,8.38,7a6.9,6.9,0,0,0-.11-4.63C4.53-5.27-.46,7.52,0,11.08.59,15.08,2.16,19,1.67,23c-.24,2-1,3.94-.54,5.87.36,1.56,1.44,2.85,2.17,4.27s1.07,2.73,1.72,4c1.25,2.48,3.37,4.4,5.45,6.24a1.92,1.92,0,0,0,1.43.67A1.46,1.46,0,0,0,13,42.83c.48-2.87-3.21-4.67-4.07-7.46s1.39-5.72,1.16-8.66C9.92,25,9,23.54,8.4,22Z"/></g></g></svg>