<svg xmlns="http://www.w3.org/2000/svg" viewBox="0 0 56.72 47.44"><defs><style>.cls-1{fill:#ffe1e3;}</style></defs><title>side_1</title><g id="Layer_2" data-name="Layer 2"><g id="side_smoke"><path class="cls-1" d="M10.66,25.9l.17,0a3.11,3.11,0,0,0,1.77-.47c.93-.76.53-2.23.62-3.43.17-2.5,2.6-4.1,4.57-5.64s3.84-4.19,2.57-6.35a14.17,14.17,0,0,1-1.22-1.77c-.55-1.38.47-2.83,1.2-4.13S21.34.77,20,.15a2.39,2.39,0,0,0-2,.22c-2.36,1.23-3.42,4.16-3.22,6.81a7.83,7.83,0,0,1,0,2.93,6.93,6.93,0,0,1-2,2.58,15.91,15.91,0,0,0-4.56,10C4.81,21.13.36,24.11.48,27.79a15.84,15.84,0,0,1,.18,2.88C.54,31.46.12,32.19,0,33c-.16,1.31.54,2.56.76,3.87.29,1.77-.33,3.54-.57,5.32S.28,46.06,1.81,47C4.17,48.42,7,46,9.69,45.57c2.21-.37,4.58.58,6.66-.25,1.47-.58,2.49-2,3.92-2.63,2.53-1.2,5.79,0,8.21-1.4,1.49-.87,2.33-2.54,3.72-3.55a10.87,10.87,0,0,1,3.37-1.39c3.44-1,7.07-2.47,8.93-5.53,1.21-2,1.54-4.48,3.08-6.22,1.32-1.49,3.38-2.23,4.52-3.85,1.27-1.8,1.13-4.27,2.18-6.21.59-1.09,1.53-2,2-3.1,2.09-4.65-4.92-3.84-6.27-.23-.81,2.17-.82,4.69-2.24,6.52-1,1.24-2.49,2-3.26,3.38s-.66,3.31-1.68,4.6C41.21,27.81,37.74,27,35.4,28.3c-2.19,1.24-3.12,4.23-5.5,5.06-1.53.53-3.26,0-4.8.49S22.51,35.7,21,36.3a8.81,8.81,0,0,1-4.21.27,7,7,0,0,1-3.74-1.11c-1-.82-1.46-2.54-.51-3.45,1.66-1.59,4.42,1.07,6.61.34,1.64-.55,2.15-2.74,3.66-3.59s3.42-.11,5-.69C30.95,27,30.71,22.36,33,20c1.75-1.78,4.91-2.12,5.92-4.4.57-1.29.26-2.87,1-4.09.51-.9,1.52-1.55,1.63-2.58.14-1.36-1.51-2.29-2.87-2.14-2.15.23-3.77,2-4.91,3.87S31.67,14.57,30,15.91s-4.22,1.89-5.74,3.57c-.82.91-1.29,2.09-2.1,3a10.77,10.77,0,0,1-2.85,2.1L9.92,30a2.94,2.94,0,0,1-1.54.54c-1.34-.06-1.89-2-1.12-3.1A4.5,4.5,0,0,1,10.66,25.9Z"/></g></g></svg>