<svg xmlns="http://www.w3.org/2000/svg" viewBox="0 0 25.03 40.76"><defs><style>.cls-1{fill:#ffe1e3;}</style></defs><title>side_3</title><g id="Layer_2" data-name="Layer 2"><g id="side_smoke3"><path class="cls-1" d="M12.65,36.84a8.64,8.64,0,0,0,4.2-3.05c.69-1.09,1-2.43,1.72-3.48,1.57-2.16,4.9-2.67,6.06-5.07,1.65-3.4-2.36-7-2.35-10.77,0-2.06,1.2-4.24.25-6.07-.53-1-1.67-1.71-2-2.82s.35-2.67-.08-3.91A2.9,2.9,0,0,0,17,.09,6.34,6.34,0,0,0,13.74,2.5c-1.31,1.64-2.32,3.94-1.34,5.8a15.94,15.94,0,0,1,1.15,1.87,5.86,5.86,0,0,1,.06,2.44c-.21,2.71,1.54,4.76,1.6,7.2s-1.74,5.65-2.42,7.86a7.75,7.75,0,0,1-.94,2.2A8.23,8.23,0,0,1,9.07,32a69.27,69.27,0,0,0-7.52,5C.62,37.8-.39,38.95.15,40s2.22.82,3.38.38l7.93-3Z"/></g></g></svg>