<svg xmlns="http://www.w3.org/2000/svg" viewBox="0 0 20.73 44.98"><defs><style>.cls-1{fill:#ffe1e3;}</style></defs><title>side_2</title><g id="Layer_2" data-name="Layer 2"><g id="side_smoke2"><path class="cls-1" d="M4.09,42.48l0-.12c.52-1.78.25-3.79,1.16-5.41,1-1.84,3.38-2.82,3.94-4.85s-.89-4.44.26-6.2c.65-1,2-1.43,2.55-2.46,1.18-2-1.2-4.65-.46-6.9,1-3.08,6.23-2.09,8.11-4.74a6.25,6.25,0,0,0,.86-2.49c.75-3.89-.7-12.3-6.71-8.23a10,10,0,0,0-3.23,4.59,17,17,0,0,1-2.69,5,14.56,14.56,0,0,0-2.29,2.51c-1.3,2.37.32,5.43-.54,8-.43,1.29-1.45,2.33-1.81,3.64-.61,2.22.81,4.69,0,6.85-.7,1.86-3,3.09-2.93,5.08A10.05,10.05,0,0,0,.92,39c.46,1.87-.24,3.8-.92,5.6C1.39,45.74,3.51,44.21,4.09,42.48Z"/></g></g></svg>