<svg xmlns="http://www.w3.org/2000/svg" viewBox="0 0 16.59 47.77"><defs><style>.cls-1{fill:#ffe1e3;}</style></defs><title>smoke_4</title><g id="Layer_2" data-name="Layer 2"><g id="smoke_4"><path class="cls-1" d="M16.36,44.49a1.57,1.57,0,0,0-.57-.6c-1.17-.71-2.86.17-4-.59-.9-.59-1-1.88-.82-2.94a5.44,5.44,0,0,0,0-3.17c-.59-1.21-2.28-2-2.09-3.3.11-.82.93-1.34,1.34-2.07.67-1.19.13-2.7-.6-3.85s-1.69-2.24-1.9-3.6c-.27-1.77.8-3.43,1.75-4.95s1.83-3.37,1.17-5a10.81,10.81,0,0,0-2.08-2.66A7.14,7.14,0,0,1,7,6.22,10.26,10.26,0,0,1,8.16,3a.5.5,0,0,0,.07-.23A.5.5,0,0,0,8,2.42L6.52,1.15a4.86,4.86,0,0,0-1.35-1C3.95-.26,2.48.36,1.29.62a.5.5,0,0,0-.18.06A.49.49,0,0,0,1,.9,10.91,10.91,0,0,0,.18,7.34C.83,10.75,3.13,14,2.43,17.39,2,19.46.49,21.35.8,23.44c.4,2.71,3.71,4.41,3.76,7.15C4.6,33,2,35.35,3.21,37.45c.88,1.6,3.36,1.7,4.26,3.29,1.07,1.88-.67,4.79,1,6.2.95.82,2.39.49,3.61.19s2.77-.4,3.47.64A2.89,2.89,0,0,0,16.36,44.49Z"/></g></g></svg>