<svg xmlns="http://www.w3.org/2000/svg" viewBox="0 0 7.88 28.82"><defs><style>.cls-1{fill:#ffe1e3;}</style></defs><title>smoke</title><g id="Layer_2" data-name="Layer 2"><g id="smoke_"><path class="cls-1" d="M7.23,23.81A4.06,4.06,0,0,0,7.54,20a8.85,8.85,0,0,1-.75-1.63,4.72,4.72,0,0,1,.27-2.21A5.53,5.53,0,0,0,7.16,13a4.7,4.7,0,0,1-.07-3.35,8.2,8.2,0,0,0,.2-3.11,1.64,1.64,0,0,0-.17-.6c-.14-.25-.39-.42-.52-.68a1.66,1.66,0,0,1-.1-.8A5.2,5.2,0,0,0,5.8,1,2.83,2.83,0,0,0,2.07.47,5.08,5.08,0,0,0,.4,3.93,30.67,30.67,0,0,0,0,7.87a6.42,6.42,0,0,0,.31,2.6c.4,1,1.23,1.78,1.7,2.76a5.75,5.75,0,0,1-.34,5C1.24,19.1.64,20,.89,21c.38,1.38,2.35,1.73,2.88,3.06a4.69,4.69,0,0,1-.1,2.46c-.13.82,0,1.84.73,2.21a1.47,1.47,0,0,0,.65.14,2,2,0,0,0,1.8-2.92,2.59,2.59,0,0,1-.28-.6c-.11-.52.31-1,.61-1.43Z"/></g></g></svg>