<svg xmlns="http://www.w3.org/2000/svg" viewBox="0 0 14.89 38.34"><defs><style>.cls-1{fill:#ffe1e3;}</style></defs><title>smoke_2</title><g id="Layer_2" data-name="Layer 2"><g id="smoke_2"><path class="cls-1" d="M8.45,35.57c-.17-.64-.62-1.18-.81-1.81-.44-1.49.62-3,1.8-4s2.59-1.89,3.22-3.32c.9-2-.16-4.39-1.31-6.31s-2.45-4-2-6.23c.68-3.56,5.55-5.44,5.57-9.07a4.65,4.65,0,0,0-2.16-3.74A6.73,6.73,0,0,0,5,1.45a3.66,3.66,0,0,0-1.7,3.19,12.1,12.1,0,0,0,.94,2.6,5,5,0,0,1-.81,4.62c-1,1.25-2.63,2-3.19,3.53-.79,2.13,1,4.3,2.69,5.82S6.49,24.7,6,26.92c-.28,1.26-1.28,2.2-2.06,3.22s-1.4,2.42-.8,3.56A14.5,14.5,0,0,1,3.94,35a11,11,0,0,1,.25,1.67,2.29,2.29,0,0,0,2.66,1.65A2.29,2.29,0,0,0,8.46,35.6Z"/></g></g></svg>