<svg xmlns="http://www.w3.org/2000/svg" viewBox="0 0 19.08 54.57"><defs><style>.cls-1{fill:#ffe1e3;}</style></defs><title>smoke_3</title><g id="Layer_2" data-name="Layer 2"><g id="smoke_3"><path class="cls-1" d="M10.34,49.47A11.81,11.81,0,0,0,7.8,46.41a3.54,3.54,0,0,1-1.46-2.54c.09-1.47,1.83-2.14,2.92-3.12a4.49,4.49,0,0,0,.83-5.44c-.52-.88-1.33-1.55-1.9-2.39a5.53,5.53,0,0,1,.65-6.83c1.25-1.24,3-1.79,4.38-2.91a6.74,6.74,0,0,0,2.29-6.33,28.81,28.81,0,0,1-.74-3.15,8,8,0,0,1,1.68-4.81,15.93,15.93,0,0,0,2.48-4.53c.9-3.46-2.39-6.44-4.44-2.44-.58,1.14-.82,2.42-1.37,3.57C12,7.81,9.65,9.42,8.8,11.85,8,14,8.6,16.48,8,18.7c-.32,1.14-1.62,2.35-2.52,1.58A1.72,1.72,0,0,1,5,19.37C3.89,15,8.39,11.26,8.88,6.82,9,5.37,8.6,3.65,7.26,3.06A3.09,3.09,0,0,0,3.8,4.12,8,8,0,0,0,2.37,7.7a43.15,43.15,0,0,0-.44,14.48A8,8,0,0,1,2,24.85C1.73,26.33.55,27.5.15,29c-.72,2.63,1.25,5.16,3,7.24a3.8,3.8,0,0,1,1,1.64c.41,2.05-2.43,3.37-2.75,5.44-.45,3,4.23,4.32,4.71,7.28.16,1-.18,2.07.26,3C7,54.82,9,54.88,10,53.84a3.81,3.81,0,0,0,.45-4.06Z"/></g></g></svg>