<svg xmlns="http://www.w3.org/2000/svg" viewBox="0 0 50.38 72.12"><defs><style>.cls-1{fill:#ffe1e3;}</style></defs><title>smokey</title><g id="Layer_2" data-name="Layer 2"><g id="smokey"><path class="cls-1" d="M.73,67.56a4.74,4.74,0,0,1,4.74-2.35A7.49,7.49,0,0,0,8,65.64c1.69-.28,2.33-2.4,2.29-4.11s-.33-3.64.75-5,3.13-1.69,3.52-3.28c.44-1.75-1.57-3.1-2.13-4.81-.64-1.93.66-4,2.11-5.39s3.19-2.77,3.76-4.72c1.18-4.06-3.31-7.78-3.23-12,.06-3,2.42-5.47,4.44-7.75s3.92-5.34,2.87-8.2C21.62,8.24,19.29,6.75,19,4.46c-.32-2.92,3.29-5,6.14-4.32,7.13,1.8,8.85,10.6,6.1,16.36-1.59,3.33-3.82,6.53-4,10.21-.2,4.48,2.68,9.27.5,13.19-1.76,3.17-6.43,4.71-6.59,8.33-.07,1.76,1,3.34,1.49,5a7.13,7.13,0,0,1-4.8,8.37c.06,1.36,2.15,1.51,3.23.68s1.8-2.17,3.09-2.6c1.45-.48,3,.39,4.49.61a5.52,5.52,0,0,0,6-4.71,17.78,17.78,0,0,1,.2-3.12c1-3.6,7-3.53,8.28-7.06.64-1.82-.28-4.06.81-5.66,1.23-1.8,4.32-1.23,5.5.6s.93,4.24.27,6.32-1.69,4.07-1.94,6.23A15.49,15.49,0,0,1,47.35,57c-.6,1.48-2,2.47-3.13,3.58-2,1.93-3.44,4.38-5.43,6.33s-4.88,3.37-7.53,2.51c-1.89-.62-3.54-2.36-5.51-2.06-1.23.19-2.2,1.15-3.39,1.51-2.62.8-5.11-1.42-7-3.45C15,68.26,14,71.78,11.15,72.1a8.35,8.35,0,0,1-3.33-.68,14.69,14.69,0,0,0-7.64-.28A4.34,4.34,0,0,1,.73,67.56Z"/></g></g></svg>