<svg xmlns="http://www.w3.org/2000/svg" viewBox="0 0 22.52 59.14"><defs><style>.cls-1{fill:#ffe1e3;}</style></defs><title>smokee_2</title><g id="Layer_2" data-name="Layer 2"><g id="smokee_2"><path class="cls-1" d="M22.44,56.63a3.57,3.57,0,0,0-.16-2.08,6.22,6.22,0,0,0-4.59-3.31,5.09,5.09,0,0,1-1.9-.63c-2-1.39-.32-4.51-.89-6.84-.3-1.24-1.24-2.2-1.86-3.31-2.2-3.87-.36-8.8,2.18-12.45s5.85-7,6.89-11.32a12.13,12.13,0,0,0-2.77-10.8,2.89,2.89,0,0,0-2.61-1.22c-1.81.44-1.49,3.06-1,4.85a19.87,19.87,0,0,1-3.12,16.75c-2.11-1-2.58-3.81-2.16-6.1s1.43-4.53,1.15-6.84a6.3,6.3,0,0,0-1.22-3A7.47,7.47,0,0,1,9.05,8.41c-.42-1.2.18-2.5.25-3.76.17-3-3.66-5.58-6.42-4.32C-.46,1.86-.48,7.71.75,10.58c.87,2,2.45,3.78,2.76,6C3.93,19.37,2.1,22.16,2.43,25s2.76,5.08,3.48,7.88c.87,3.4-.86,7.33.92,10.36.67,1.14,1.75,2,2.5,3.06a21.16,21.16,0,0,1,1.58,3.42,28.46,28.46,0,0,0,5,7C17,58,18.39,59.32,20,59.12A3,3,0,0,0,22.44,56.63Z"/></g></g></svg>