<svg xmlns="http://www.w3.org/2000/svg" viewBox="0 0 17.37 10.96"><defs><style>.cls-1{fill:#ffe1e3;}</style></defs><title>Smoke_ring2</title><g id="Layer_2" data-name="Layer 2"><g id="smoke_ring_2" data-name="smoke ring_2"><path class="cls-1" d="M7.64,10.9c.7-.14,1.33-.51,2-.71a30.55,30.55,0,0,1,3.42-.46C15.15,9.35,16,7.48,17,5.8a2.1,2.1,0,0,0,.23-.49C17.71,3.37,17.2.88,15,.18a5,5,0,0,0-3,.1c-.74.22-1.53.8-2.27.93L8,1.54C5.52,2,4.32,3.77,2.29,4.95A6.65,6.65,0,0,0,.53,6.24,1.91,1.91,0,0,0,0,7.43,2.08,2.08,0,0,0,1,9a4.52,4.52,0,0,0,2.75.86,1.94,1.94,0,0,1,.84.08C5.68,10.45,6.26,11.18,7.64,10.9Z"/><path class="cls-1" d="M9.91,4a9.28,9.28,0,0,0,1.38,0,2.63,2.63,0,0,1,2.22.25.92.92,0,0,1,.33,1,.92.92,0,0,1-.69.49,4.41,4.41,0,0,0-1.86.49,4.29,4.29,0,0,1-3,.4c-.23,0-.43-.28-.67-.32-.68-.11-1.44.3-2.15.26a1,1,0,0,1-.89-.49c-.32-.88.66-.93,1.22-1a2.44,2.44,0,0,0,1.28-.71,3.72,3.72,0,0,1,1.21-.66c.5-.19,1,.1,1.44.19Z"/></g></g></svg>