<svg xmlns="http://www.w3.org/2000/svg" viewBox="0 0 19.01 15.69"><defs><style>.cls-1{fill:#ffe1e3;}</style></defs><title>smoke_ring5</title><g id="Layer_2" data-name="Layer 2"><g id="smokering_5"><path class="cls-1" d="M17.05,14.43A3.55,3.55,0,0,0,19,11.49c.06-1.47-1.17-2.59-1.25-4,0-.82.37-1.62.26-2.44a1.63,1.63,0,0,0-3.13-.56c-.27.63.09,1.17.33,1.74.54,1,.95,2,.3,3.12a4.91,4.91,0,0,1-1.66,1.46c-.93.59-2,1.41-3.18,1.37s-2.32-1.1-3.14-1.84A3.74,3.74,0,0,1,6.48,9C5.63,6.8,8.23,6.51,8.85,5.06a4.46,4.46,0,0,0,.27-2,4,4,0,0,0-.23-1.21A3,3,0,0,0,6.42,0a4.17,4.17,0,0,0-3,.91C1.68,2.28,1.79,4.11,1.79,6.07l-.45.71c-.9,1.42-2,2.59-.81,4.34a6.84,6.84,0,0,0,1.92,1.72c1,.69,2.17,1,3.21,1.63a6,6,0,0,0,2.54,1.18A8.62,8.62,0,0,0,10,15.6l3.8-.41a9.54,9.54,0,0,0,3.13-.7Z"/></g></g></svg>