<svg xmlns="http://www.w3.org/2000/svg" viewBox="0 0 28.94 15.86"><defs><style>.cls-1{fill:#ffe1e3;}</style></defs><title>smoke_ring4</title><g id="Layer_2" data-name="Layer 2"><g id="smokering__4" data-name="smokering _4"><path class="cls-1" d="M22.59,13.58c1.28-.83,2.84-1.13,4.1-2a5.1,5.1,0,0,0,2.25-3.72c.05-1.65-1.45-3.2-2.54-4.26-1.32-.92-2.35-1.69-4-1.7a20.8,20.8,0,0,1-3,0A7.16,7.16,0,0,1,16.76.72a6.42,6.42,0,0,0-5-.36,4.66,4.66,0,0,1-.52.21,16.56,16.56,0,0,1-4,.07A4.9,4.9,0,0,0,6.36.7a4.1,4.1,0,0,0-2.44,2c-.77,1.12-1.61.27-2.63.82a1.83,1.83,0,0,0-.7.83C.15,5.17-.32,6.55.3,7.45s2,1.69,2.76,2.64a32.49,32.49,0,0,0,2.3,2.8,7,7,0,0,0,1.93,1.24,6.74,6.74,0,0,0,2.68.73c1.61,0,2.8-.43,4.35.18,2.16.84,4.26,1.34,6.37,0,.65-.42,1.21-1,1.86-1.4Z"/><path class="cls-1" d="M20,10.44a3.81,3.81,0,0,0,1.9-2.21,2.43,2.43,0,0,0-.3-1.84A3,3,0,0,0,18.66,5c-.55.08-1,.38-1.58.46a3.65,3.65,0,0,1-1.11,0c-.47-.39-1-1-1.72-.89s-.95.5-1.5.52c-.71,0-1.48-.2-2.22-.2s-1.95.17-2.11,1.15a1.53,1.53,0,0,0,.68,1.4,5.77,5.77,0,0,0,1.48.69,5.31,5.31,0,0,1,1.88,1.39,2.94,2.94,0,0,0,2.64.72c.83-.19,1.58-.7,2.46-.48s1.51.88,2.3.7Z"/></g></g></svg>