<svg xmlns="http://www.w3.org/2000/svg" viewBox="0 0 17.9 32.45"><defs><style>.cls-1{fill:#ffe1e3;}</style></defs><title>smokee</title><g id="Layer_2" data-name="Layer 2"><g id="smokee"><path class="cls-1" d="M16.47,32.44A2.38,2.38,0,0,0,17.54,29c-.69-1-2.07-1.32-2.67-2.35-1-1.7.73-3.71.89-5.67.18-2.19-1.61-4-3.35-5.33s-3.73-2.72-4.24-4.85c-.57-2.37.9-4.84.45-7.23C7.45-2.66-2.06.09.41,5.53c.77,1.69,2.67,2.79,3.05,4.61s-1,3.81-.58,5.68c.88,3.65,7.32,3.12,8.55,6.67.47,1.37-.05,2.87,0,4.31S12.58,30,14,29.52a3.36,3.36,0,0,0,2.48,2.92Z"/></g></g></svg>