<svg xmlns="http://www.w3.org/2000/svg" viewBox="0 0 13.62 14.75"><defs><style>.cls-1{fill:#ffe1e3;}</style></defs><title>smoke_ring</title><g id="Layer_2" data-name="Layer 2"><g id="smoke_ring_1" data-name="smoke ring_1"><path class="cls-1" d="M5.87,14.7a1.48,1.48,0,0,0,1-1.13,3.45,3.45,0,0,1,.15-1.06c.34-.66,1.36-.53,1.94-1,.4-.31.54-.85.82-1.26.59-.85,1.72-1.11,2.54-1.73A3.28,3.28,0,0,0,13.48,5a6.26,6.26,0,0,0-.79-1.49l-1.29-2c-1.26-1.91-4.13-2-6-.78-.48.31-.89.73-1.38,1-.84.52-1.87.66-2.7,1.19A2.72,2.72,0,0,0,0,5.58,3.72,3.72,0,0,0,.89,7.3,2.78,2.78,0,0,0,3.15,8.61,1.62,1.62,0,0,0,4.43,6.54a9.7,9.7,0,0,1-.54-1.13c-.2-.87.66-1.66,1.53-1.86a18.59,18.59,0,0,1,2.67-.07,13.69,13.69,0,0,1,1.5-.14A1.58,1.58,0,0,1,10.9,4a1.52,1.52,0,0,1-.22,1.67A6,6,0,0,1,9.29,6.79,2.92,2.92,0,0,0,8.12,8.11c-.21.6-.08,1.32-.46,1.83s-1.45.69-1.76,1.37c-.24.52,0,1.15-.14,1.69a4.54,4.54,0,0,1-.49.82.83.83,0,0,0,0,.9A1.32,1.32,0,0,0,5.87,14.7Z"/></g></g></svg>