<svg xmlns="http://www.w3.org/2000/svg" viewBox="0 0 25.11 14.77"><defs><style>.cls-1{fill:#ffe1e3;}</style></defs><title>smoke_ring3</title><g id="Layer_2" data-name="Layer 2"><g id="smokering_3"><path class="cls-1" d="M18.43,13.77l.35-.22c.58-.4,1.1-.89,1.72-1.24a7.4,7.4,0,0,1,1.81-.58A5.2,5.2,0,0,0,24,10.42a4.62,4.62,0,0,0,1-2.33,3.08,3.08,0,0,0,0-.92A3.66,3.66,0,0,0,23.57,5a3.69,3.69,0,0,0-2-.85,3.46,3.46,0,0,1-1.34-.22,10.79,10.79,0,0,1-1.36-1.09,14.37,14.37,0,0,0-2.3-1.37A7.14,7.14,0,0,0,15.21.87a7.45,7.45,0,0,0-1.72,0A14.34,14.34,0,0,1,9.63.57,16.27,16.27,0,0,0,5.08,0,5.25,5.25,0,0,0,1.62,1.51,4.29,4.29,0,0,0,.55,2.94,4.14,4.14,0,0,0,.06,4.1C.06,4.61-.14,5.55.19,6c.12.15.29.27.4.44a1.69,1.69,0,0,1,.19.93,5.05,5.05,0,0,0,.11,2,1.53,1.53,0,0,0,.34.4q.78.72,1.63,1.37c.54.42.48.75.75,1.29a3.11,3.11,0,0,0,.88,1,5.09,5.09,0,0,0,3.44,1.09,27.3,27.3,0,0,1,3.2-.41c1.3.08,2.43.73,3.77.69A7.62,7.62,0,0,0,18.43,13.77Z"/><path class="cls-1" d="M17.48,8.86c.89-.58,1.9-2.13.61-2.86a2.53,2.53,0,0,0-1.26-.26,3.55,3.55,0,0,1-2-.57,8.25,8.25,0,0,0-1.37-1.09,2.35,2.35,0,0,0-1.3-.37,1.35,1.35,0,0,0-.3.11A12.16,12.16,0,0,0,10,5C9.12,5,8.2,5,7.28,4.88a1.52,1.52,0,0,0-1,.22A1.81,1.81,0,0,0,5.71,6a1.06,1.06,0,0,0-.07.72A.83.83,0,0,0,5.81,7a3,3,0,0,0,2.1.68l.86.48.74.69a3.86,3.86,0,0,0,1.62.87c.74.18,1.09-.15,1.75-.4L13.56,9a2.81,2.81,0,0,1,1.35-.23L16.33,9a2.32,2.32,0,0,0,.62,0A1.23,1.23,0,0,0,17.48,8.86Z"/></g></g></svg>