<svg xmlns="http://www.w3.org/2000/svg" viewBox="0 0 20.86 43.24"><defs><style>.cls-1{fill:#ffe1e3;}</style></defs><title>smokey_2</title><g id="Layer_2" data-name="Layer 2"><g id="smokey_2"><path class="cls-1" d="M9.18,41.17A11.23,11.23,0,0,0,13,35.93c.52-1.53.7-3.16,1.34-4.64,1.76-4.11,6.86-6.9,6.56-11.36-.2-2.94-2.83-5.27-3.13-8.2-.19-1.89.62-3.72,1-5.59S18.86,2,17.24,1c-7.41-4.53-5.65,7.68-6.7,10.29C10,12.5,9,13.59,9.13,14.89c.12,1.14,1.11,1.95,1.8,2.86A6.33,6.33,0,0,1,11.12,25c-1.28,1.88-3.64,3.14-4,5.38-.33,1.88.73,4.28-.78,5.43a4.41,4.41,0,0,1-2.07.6c-2,.31-4.31,1.7-4.23,3.77a3.38,3.38,0,0,0,2.5,2.91,6.25,6.25,0,0,0,4-.36A10.92,10.92,0,0,0,9.18,41.17Z"/></g></g></svg>