<svg xmlns="http://www.w3.org/2000/svg" viewBox="0 0 75.16 545.57"><defs><style>.cls-1{fill:#feb699;}</style></defs><title>tile_background</title><g id="Layer_2" data-name="Layer 2"><g id="background_color"><path class="cls-1" d="M0,543c0-.78,2.94.85,3.2,1,1.7.95,3.07,2.22,5.19,1.23.93-.43,1.69-1.09,2.56-1.61a4.06,4.06,0,0,1,3-.63c1.36.35,2.12,1.69,3.43,2.14a4.53,4.53,0,0,0,3.31-.39c1-.47,1.92-1.12,3-1.54,3.4-1.36,4.84,1.94,7.93,2,2.45,0,3.55-2.62,5.77-2.83,1.7-.15,2.84,1.22,4.09,2,1.9,1.18,3.89.52,5.74-.43S51,542,52.9,543.12c.55.31,2.76,1.91,3.73,2a2.88,2.88,0,0,0,1.58-.28c1.18-.55,1.86-1.85,3.23-2.06s2.8,1,4,1.63c1.75.84,4.12,1,5.57-.24,2.8-2.33,4.14-537,4.14-544C75.16-.2,0,.16,0,.16S0,541.86,0,543Z"/></g></g></svg>