<svg xmlns="http://www.w3.org/2000/svg" viewBox="0 0 74.72 52.6"><defs><style>.cls-1{fill:#ffe1e3;}</style></defs><title>top_smoke</title><g id="Layer_2" data-name="Layer 2"><g id="smoke_8"><path class="cls-1" d="M34.44,51.67V49.14c0-.89-.16-1.35.54-2a11.86,11.86,0,0,1,1.21-.8c1.16-.77,3.53-.7,4.91-1.28a13,13,0,0,0,4-2.56c.76-.73,1.39-2.18,2.29-2.71s1.71-1,2.58-1.48,1.7-.65,2.48-1.09c1.29-.74,1.68-3.77.58-4.81-1.32-1.25-6.88-.11-8.39.48L41.86,34c-2.23,0-4.5.5-6.72.2S32,32.52,30.49,31.33A4.34,4.34,0,0,0,29,30.45a4.74,4.74,0,0,0-1-.11,22,22,0,0,1-3.27-.15c-1.07-.22-1-.06-1.15-1.14a3,3,0,0,1,1.79-3.37c2.09-.88,2.74.92,3.76,2.09a7.2,7.2,0,0,0,3.47,1.6l4.33.53c1.09.13,4.16.36,5-.45s-.36-2.08,1.31-2.12c.86,0,1.7-.15,2.56-.16l7.06-.1L58.46,27c1.8,0,3.71.2,5.41-.46a23.82,23.82,0,0,0,4-2.28,20.58,20.58,0,0,0,6.63-6.61c.72-1.21-.34-3.27-1-4.35a4.66,4.66,0,0,0-4-2,9.67,9.67,0,0,0-2.64,0,12.56,12.56,0,0,1-2.7.92,5.08,5.08,0,0,1-3.29-.56,4.81,4.81,0,0,1-1.29-1.55L58.34,8.31c-1-1.67-3.13-1.93-5-2.55L49.13,5,46.82,4l-1-2.59L45.69,0H16.57L17,1.74c.59,2.49,4,2.87,6.45,3.46a6.67,6.67,0,0,1,3.8,2c.42.55.66,1.21,1.08,1.76.62.81,1.54.88,2.51,1.15l4.75.2c1.3,0,3.28-.33,4.45.27a2.22,2.22,0,0,1,1,2c0,1.34.19,2.32-1.26,3s-3.49.84-5.18,1.34a15.72,15.72,0,0,0-5.13,2.43c-5.36,4.05-10.72.72-16.18-.89a7.27,7.27,0,0,0-1.83-.36A8.54,8.54,0,0,0,7,19.57a3.33,3.33,0,0,0-.64.67L4.66,22.35a8.6,8.6,0,0,0-1.32,3.17C3,26.78,2.61,26.9,1.43,27.66A3.27,3.27,0,0,0,0,30.53a6.59,6.59,0,0,0,1.07,3.1,2.51,2.51,0,0,0,.64.79,2.84,2.84,0,0,0,.84.37c4.31,1.34,8.64-.3,12.9.47,1.15.21,1.6,1.22,2.6,1.66a20.81,20.81,0,0,0,3.18.53c2.14.51,3.9,1.59,3.93,3.74a14.45,14.45,0,0,1-.95,5.13c-.71,2-.82,2.68,1,4V52.6h9.38Z"/></g></g></svg>