<svg xmlns="http://www.w3.org/2000/svg" viewBox="0 0 14.16 25.41"><defs><style>.cls-1{fill:#ffe1e3;}</style></defs><title>top_1</title><g id="Layer_2" data-name="Layer 2"><g id="topwindow_1"><path class="cls-1" d="M13.67,21.6c.32-.79.3-1.71-.45-2-.54-.21-1.13.08-1.71,0-1.43-.11-1.84-2.12-1.3-3.45S11.82,13.72,12,12.3C12.21,10,10,7.79,11,5.72,11.79,3.89,14.8,2.78,14,.92,13.55-.25,11.72-.25,10.81.63A6,6,0,0,0,9.45,4.12L7.19,18.4c-.2,1.25-.7,2.81-2,2.9-1.61.12-2.12-2.26-1.48-3.74s1.82-3,1.41-4.53C5,12.31,4.44,11.7,4.28,11,4,9.59,5,8.33,5.67,7.06s.5-3.31-.9-3.53S2.64,5.17,2.46,6.59l-1,8c-.24,1.88-2.89,10.24-.36,10.56,4.31.54,9.37.55,12.14-2.79A2.87,2.87,0,0,0,13.67,21.6Z"/></g></g></svg>