<svg xmlns="http://www.w3.org/2000/svg" viewBox="0 0 27.3 50"><defs><style>.cls-1{fill:#ffe1e3;}</style></defs><title>top_3</title><g id="Layer_2" data-name="Layer 2"><g id="topwindow_3"><path class="cls-1" d="M18.3,46.39a6,6,0,0,0-2.78-2.61l-6.89-4.1a19.38,19.38,0,0,0,3.07-9A15,15,0,0,1,12.36,26c.7-1.68,2.22-3,2.74-4.7s-.11-3.88.68-5.6a8.19,8.19,0,0,1,2.8-2.82A33.1,33.1,0,0,0,26.2,4.84a5.19,5.19,0,0,0,1.1-2.77A2,2,0,0,0,25.54,0a2.76,2.76,0,0,0-1.68.84,21,21,0,0,0-4.6,5.63,8.72,8.72,0,0,1-2.07,2.9A2.36,2.36,0,0,1,14,9.22c-1-1.36.45-3.14,1.81-4.12s2.95-2.51,2.24-4C16.88-1.37,4.32,13.14,3.94,15.35c-.32,1.91.67,3.88.24,5.76-.37,1.6-1.68,2.81-2.26,4.35-1.23,3.28,1.18,7,.43,10.39C2,37.51.89,38.92.32,40.53s-.44,3.75,1,4.59a10,10,0,0,0,2.49.63c2,.53,3.37,2.32,4.9,3.71S19.51,49.43,18.3,46.39Z"/></g></g></svg>