<svg xmlns="http://www.w3.org/2000/svg" viewBox="0 0 75.16 222.5"><defs><style>.cls-1{fill:#fffffa;}</style></defs><title>whitetile</title><g id="Layer_2" data-name="Layer 2"><g id="background_color"><path class="cls-1" d="M75.16,1.06c0,.32-2.94-.35-3.2-.41-1.7-.39-3.07-.91-5.19-.5-.93.18-1.69.45-2.56.66a9.14,9.14,0,0,1-3,.26C59.9.92,59.14.37,57.83.18a10.59,10.59,0,0,0-3.31.16c-1,.19-1.92.46-3,.63-3.4.55-4.84-.79-7.93-.8-2.45,0-3.55,1.07-5.77,1.15A12.65,12.65,0,0,1,33.77.51,12.86,12.86,0,0,0,28,.68,13.77,13.77,0,0,1,22.26,1,30.06,30.06,0,0,0,18.54.16,6.67,6.67,0,0,0,17,.28a20.37,20.37,0,0,1-3.23.84,15.54,15.54,0,0,1-4-.66,12.49,12.49,0,0,0-5.57.1C1.34,1.5,0,219.58,0,222.44c0,.15,75.16,0,75.16,0S75.16,1.51,75.16,1.06Z"/></g></g></svg>